<svg xmlns="http://www.w3.org/2000/svg" xmlns:xlink="http://www.w3.org/1999/xlink" viewBox="0 0 107.38 104.98"><defs><style>.cls-1,.cls-4{fill:#2d3436;}.cls-2{fill:#7fb8c4;}.cls-3{fill:url(#Gradiente_sem_nome_27);}.cls-4{font-size:24px;font-family:Righteous-Regular, Righteous;letter-spacing:0em;}</style><radialGradient id="Gradiente_sem_nome_27" cx="50.43" cy="53" fx="-2.413604507832531" fy="107.41064904390403" r="75.85" gradientTransform="translate(-15.94 20.71) rotate(-20.96) scale(1 1.02)" gradientUnits="userSpaceOnUse"><stop offset="0" stop-color="#a29bfe"/><stop offset="0.23" stop-color="#99b0f9"/><stop offset="0.74" stop-color="#88dbf0"/><stop offset="1" stop-color="#81ecec"/></radialGradient></defs><g id="Camada_2" data-name="Camada 2"><g id="Fundo"><rect class="cls-1" x="2.84" y="0.08" width="104.51" height="104.51" rx="8.26"/><path class="cls-2" d="M107.38,34.12A8.68,8.68,0,0,0,102.84,33l-40.09.13,0-.06c8.2-.86,8.08-11.37-.39-11.92,2.36-1.89,1.41-6.08-2.89-6.08H45.29A8.5,8.5,0,0,0,42.35,6.9a5.18,5.18,0,0,0,1.5.08c4.4-.34,4-7-.39-7H14.67a8,8,0,0,0-8,8.1l.81,89.49a7,7,0,0,0,6.94,6.92l34,.16c14.28,0,14.3-18,0-18v-.52H61c4,0,5.11-3.64,3.33-5.67h9.42c9.3,0,9.52-11.45.63-12v0H89.82A5.92,5.92,0,0,0,95.52,65c4.44-.72,6.22-4.4,5.3-7.47a10.64,10.64,0,0,0,6.53-2ZM24.17,15.06Z"/><path class="cls-3" d="M103.69,42.61c3.48-3.42,1.43-9.52-5.77-9.52l-40.8.13,0-.07c8.34-.85,8.22-11.39-.4-11.94,2.41-1.9,1.44-6.1-3-6.1H39.34a8.45,8.45,0,0,0-3-8.19A5.39,5.39,0,0,0,37.88,7c4.48-.34,4.09-7-.4-7H8.17A8.11,8.11,0,0,0,0,8.13L.82,97.89a7,7,0,0,0,7.07,6.93l34.65.16c14.53,0,14.56-18,0-18v-.52H55.36c4.08,0,5.2-3.66,3.39-5.69h9.58c9.47,0,9.7-11.48.65-12v0H84.67a6,6,0,0,0,5.8-3.46c4.52-.72,6.33-4.41,5.4-7.5C106.3,57.43,108.92,47.65,103.69,42.61ZM17.85,15.11Z"/><g id="Camada_2-2" data-name="Camada 2"><text class="cls-4" transform="translate(11.44 57.27)">W.A.S.D</text></g></g></g></svg>